Coordinates
version=1
nRows=10
nColumns=40
inDegrees=yes

Units are S.I. units (second, meters, Newtons, ...)
If the header above contains a line with 'inDegrees', this indicates whether rotational values are in degrees (yes) or radians (no).

endheader
time	pelvis_tilt	pelvis_list	pelvis_rotation	pelvis_tx	pelvis_ty	pelvis_tz	hip_flexion_r	hip_adduction_r	hip_rotation_r	knee_angle_r	knee_angle_r_beta	ankle_angle_r	subtalar_angle_r	mtp_angle_r	hip_flexion_l	hip_adduction_l	hip_rotation_l	knee_angle_l	knee_angle_l_beta	ankle_angle_l	subtalar_angle_l	mtp_angle_l	lumbar_extension	lumbar_bending	lumbar_rotation	arm_flex_r	arm_add_r	arm_rot_r	elbow_flex_r	pro_sup_r	wrist_flex_r	wrist_dev_r	arm_flex_l	arm_add_l	arm_rot_l	elbow_flex_l	pro_sup_l	wrist_flex_l	wrist_dev_l
      5.39000000	    -15.41120834	     -2.87255822	      4.73948079	     -0.39718562	      0.85565202	     -0.78114933	     58.97235559	     -1.41075068	    -12.83576370	     77.07313700	      1.34518001	     24.86373554	      0.00000000	      0.00000000	     37.18662155	    -12.94028372	     -3.41537019	    113.83732486	      1.98683613	    -17.89154121	      0.00000000	      0.00000000	     -9.16309997	      8.84125128	      6.71043020	     89.95801052	    -18.78936884	     15.29498701	     48.39792937	     83.27272005	      0.00000000	      0.00000000	     89.95562385	     -3.62281944	     16.52542617	     45.30079069	     83.64655860	      0.00000000	      0.00000000
      5.39500000	    -15.40371015	     -2.85354634	      4.73137387	     -0.39714535	      0.85630328	     -0.78107012	     58.86363528	     -1.47459270	    -12.93865080	     76.88536929	      1.34190284	     24.76583885	      0.00000000	      0.00000000	     37.15746889	    -12.98538320	     -3.43118245	    113.77375087	      1.98572655	    -17.86465745	      0.00000000	      0.00000000	     -9.13704105	      8.84008506	      6.72588420	     89.95789990	    -18.80491198	     15.33112338	     48.35516245	     83.27821198	      0.00000000	      0.00000000	     89.95562234	     -3.62449968	     16.59218460	     45.24358516	     83.65629164	      0.00000000	      0.00000000
      5.40000000	    -15.40052339	     -2.83316819	      4.72791671	     -0.39707736	      0.85683000	     -0.78100403	     58.82157416	     -1.50802482	    -12.95146810	     76.85441800	      1.34136264	     24.74480658	      0.00000000	      0.00000000	     37.15116351	    -13.02212701	     -3.41374747	    113.72561677	      1.98488646	    -17.85201093	      0.00000000	      0.00000000	     -9.10998193	      8.84410180	      6.73218428	     89.95779306	    -18.81135983	     15.33166012	     48.36467030	     83.27822037	      0.00000000	      0.00000000	     89.95553490	     -3.62026286	     16.59651682	     45.25813627	     83.65766010	      0.00000000	      0.00000000
      5.40500000	    -15.32965923	     -2.82219001	      4.73245624	     -0.39689641	      0.85758846	     -0.78103782	     58.63307556	     -1.57964844	    -13.07382102	     76.65752721	      1.33792625	     24.61392294	      0.00000000	      0.00000000	     37.02992446	    -13.05784608	     -3.39754201	    113.63943470	      1.98338230	    -17.80743146	      0.00000000	      0.00000000	     -9.13668107	      8.86213454	      6.72210931	     89.95778893	    -18.82300408	     15.43850247	     48.29580580	     83.28577252	      0.00000000	      0.00000000	     89.95549157	     -3.62908129	     16.68704071	     45.16771415	     83.66973322	      0.00000000	      0.00000000
      5.41000000	    -15.32441421	     -2.80613303	      4.72561879	     -0.39684463	      0.85814285	     -0.78101114	     58.59303660	     -1.61030918	    -13.08097806	     76.63995032	      1.33761947	     24.59728248	      0.00000000	      0.00000000	     37.03397649	    -13.09361727	     -3.37990662	    113.59465084	      1.98260067	    -17.79095278	      0.00000000	      0.00000000	     -9.11270707	      8.86663813	      6.73063557	     89.95770028	    -18.83043943	     15.43069730	     48.30689851	     83.28508436	      0.00000000	      0.00000000	     89.95532965	     -3.62306072	     16.69056502	     45.18602376	     83.67110666	      0.00000000	      0.00000000
      5.41500000	    -15.27941799	     -2.80275740	      4.70732582	     -0.39680053	      0.85879573	     -0.78098476	     58.45034778	     -1.65005015	    -13.19271639	     76.46066297	      1.33449032	     24.48213032	      0.00000000	      0.00000000	     36.97742051	    -13.16477980	     -3.40292415	    113.53689671	      1.98159267	    -17.75747326	      0.00000000	      0.00000000	     -9.11371873	      8.88816707	      6.75961322	     89.95770881	    -18.84836022	     15.49820494	     48.20056675	     83.29053344	      0.00000000	      0.00000000	     89.95531574	     -3.61209668	     16.77588103	     45.14043105	     83.68407163	      0.00000000	      0.00000000
      5.42000000	    -15.27745167	     -2.79274439	      4.70599652	     -0.39683388	      0.85937600	     -0.78093173	     58.40802980	     -1.67961517	    -13.20977152	     76.41237986	      1.33364762	     24.45614477	      0.00000000	      0.00000000	     36.98790809	    -13.20933083	     -3.39360122	    113.49228732	      1.98081409	    -17.73867373	      0.00000000	      0.00000000	     -9.09142081	      8.90203594	      6.77377002	     89.95759450	    -18.85679543	     15.49352755	     48.20496143	     83.29047309	      0.00000000	      0.00000000	     89.95531905	     -3.61917218	     16.77827512	     45.15402916	     83.68535936	      0.00000000	      0.00000000
      5.42500000	    -15.18393614	     -2.82113545	      4.67438966	     -0.39655538	      0.86008286	     -0.78077748	     58.18897709	     -1.67096989	    -13.34767118	     76.21039763	      1.33012236	     24.32911811	      0.00000000	      0.00000000	     36.84022431	    -13.33045495	     -3.39192737	    113.41717790	      1.97950318	    -17.68333278	      0.00000000	      0.00000000	     -9.13580443	      8.95755526	      6.81938431	     89.95751625	    -18.83980386	     15.50100534	     48.12892588	     83.29407868	      0.00000000	      0.00000000	     89.95533947	     -3.62206385	     16.88502974	     45.08195850	     83.69685719	      0.00000000	      0.00000000
      5.43000000	    -15.11463931	     -2.87432818	      4.67930700	     -0.39640914	      0.86078261	     -0.78069916	     58.03802528	     -1.66025807	    -13.45549051	     76.09512801	      1.32811053	     24.24840901	      0.00000000	      0.00000000	     36.76660799	    -13.43276063	     -3.31169875	    113.36393620	      1.97857394	    -17.60681163	      0.00000000	      0.00000000	     -9.15253783	      9.02701739	      6.81613862	     89.95758461	    -18.86977199	     15.57287504	     48.08379254	     83.29920186	      0.00000000	      0.00000000	     89.95524444	     -3.62940721	     16.94700106	     45.05193921	     83.71174630	      0.00000000	      0.00000000
      5.43500000	    -15.11721766	     -2.85855539	      4.68269113	     -0.39645869	      0.86143074	     -0.78068871	     58.00420003	     -1.69718961	    -13.46526207	     76.05923452	      1.32748407	     24.23552009	      0.00000000	      0.00000000	     36.79616279	    -13.46555063	     -3.30701282	    113.31174973	      1.97766311	    -17.58717939	      0.00000000	      0.00000000	     -9.13220531	      9.03642352	      6.81853531	     89.95751893	    -18.87701552	     15.55336721	     48.11202765	     83.29750428	      0.00000000	      0.00000000	     89.95525200	     -3.63212431	     16.94084003	     45.08435437	     83.71215554	      0.00000000	      0.00000000
